<svg width="235" height="33"  fill="none" xmlns="http://www.w3.org/2000/svg">
<path d="M11.5772 14.1527V18.1236C11.5772 18.5406 11.7905 18.8752 12.2172 19.1273C12.5566 19.3406 12.9008 19.4473 13.2499 19.4473H13.919V24.2182H13.2499C12.6875 24.2182 12.0911 24.1261 11.4608 23.9418C11.1796 26.0848 10.4572 27.8109 9.29352 29.12C7.59655 31.0497 5.11413 32.0145 1.84625 32.0145H0.40625V27.2436H1.84625C3.63049 27.2436 4.9008 26.8412 5.65716 26.0364C6.42322 25.2315 6.80625 23.8836 6.80625 21.9927V14.1527H11.5772ZM21.5334 10.6618C22.3286 10.7782 24.3067 11.2727 27.468 12.1455C28.5734 12.4461 29.7419 12.7709 30.9734 13.12C31.9431 13.4012 32.6898 13.6194 33.2134 13.7745L33.9552 17.9782L33.5334 18.2982L33.1116 18.5891C32.7722 18.8412 32.5104 19.0352 32.3261 19.1709C32.8207 19.297 33.5189 19.3794 34.4207 19.4182C34.7407 19.4279 35.0849 19.4376 35.4534 19.4473H36.2098V24.2182C33.2328 24.2182 31.114 23.9224 29.8534 23.3309C29.1164 22.9915 28.5104 22.5358 28.0352 21.9636C27.2207 22.4097 26.3722 22.783 25.4898 23.0836C23.2595 23.84 19.1625 24.2182 13.1989 24.2182V19.4473C17.0486 19.4473 19.8316 19.3115 21.548 19.04C23.6231 18.7103 25.4752 18.0267 27.1043 16.9891L26.0425 16.6982L25.0243 16.4073C24.1904 16.1648 23.5649 15.9903 23.148 15.8836C21.868 15.5345 21.0631 15.36 20.7334 15.36C20.4716 15.36 20.2243 15.5103 19.9916 15.8109C19.7492 16.1018 19.5649 16.4994 19.4389 17.0036L14.828 15.7964C15.274 14.0703 16.1031 12.737 17.3152 11.7964C18.3431 10.9915 19.4486 10.5891 20.6316 10.5891C20.9225 10.5891 21.2231 10.6133 21.5334 10.6618ZM20.5589 29.2073L23.5843 26.1527L26.668 29.2364L23.6134 32.2909L20.5589 29.2073ZM47.3056 18.1236C47.3056 18.5891 47.4171 18.9188 47.6401 19.1127C47.8922 19.3358 48.3383 19.4473 48.9783 19.4473H51.1019V24.2182H48.9783C48.348 24.2182 47.7516 24.1503 47.1892 24.0145C46.7431 23.9079 46.3262 23.7576 45.9383 23.5636C45.4922 23.3503 45.1577 23.137 44.9347 22.9236C44.7116 23.137 44.3528 23.3503 43.8583 23.5636C42.8789 24 41.7153 24.2182 40.3674 24.2182H35.4801V19.4473H40.7019C41.4001 19.4473 41.8898 19.3309 42.171 19.0982C42.4231 18.8945 42.5492 18.5697 42.5492 18.1236V14.1673H47.3056V18.1236ZM45.4001 32.6255L42.5492 29.7455L45.371 26.8364L48.2801 29.7455L45.4001 32.6255ZM39.2619 32.64L36.411 29.76L39.2183 26.8509L42.1274 29.76L39.2619 32.64ZM60.0591 18.1236C60.0591 18.5891 60.1706 18.9188 60.3936 19.1127C60.6458 19.3358 61.0918 19.4473 61.7318 19.4473H62.3136V24.2182H61.7318C61.1015 24.2182 60.5052 24.1503 59.9427 24.0145C59.4967 23.9079 59.0797 23.7576 58.6918 23.5636C58.2458 23.3503 57.9112 23.137 57.6882 22.9236C57.4652 23.137 57.1064 23.3503 56.6118 23.5636C55.6324 24 54.4688 24.2182 53.1209 24.2182H50.3864V19.4473H53.4555C54.1536 19.4473 54.6433 19.3309 54.9245 19.0982C55.1767 18.8945 55.3027 18.5697 55.3027 18.1236V14.1673H60.0591V18.1236ZM53.6155 7.46182L56.6409 4.40727L59.7245 7.49091L56.6555 10.5455L53.6155 7.46182ZM73.3993 20.0436C73.5254 19.6945 73.5884 19.3164 73.5884 18.9091C73.5884 18.8024 73.5836 18.6958 73.5739 18.5891C73.5254 17.8424 73.3072 17.1976 72.9193 16.6545C72.5217 16.1018 72.0611 15.8255 71.5375 15.8255C70.8199 15.8255 70.2284 16.2521 69.763 17.1055C69.5981 17.3964 69.4478 17.7552 69.312 18.1818C69.2636 18.3176 69.2102 18.4824 69.152 18.6764L69.0939 18.8945L69.0357 19.0836C69.5981 19.5685 70.3157 19.9709 71.1884 20.2909C71.906 20.543 72.4781 20.6691 72.9048 20.6691C73.0793 20.6691 73.2442 20.4606 73.3993 20.0436ZM71.5375 11.0545C73.7872 11.0545 75.5036 11.9952 76.6866 13.8764C77.1423 14.6036 77.4866 15.4279 77.7193 16.3491C77.9133 17.1345 78.0102 17.8812 78.0102 18.5891C78.0102 20.9455 77.4187 22.7103 76.2357 23.8836C75.7896 24.3394 75.266 24.6885 74.6648 24.9309C74.1799 25.1248 73.6902 25.2364 73.1957 25.2655C73.0987 25.2752 72.963 25.28 72.7884 25.28C71.5763 25.28 70.2866 24.9794 68.9193 24.3782C68.4539 24.1842 67.9545 23.937 67.4211 23.6364L67.1011 23.4618L66.8102 23.3018C66.5872 23.1661 66.4272 23.0739 66.3302 23.0255C65.5351 23.8206 64.2114 24.2182 62.3593 24.2182H61.5739V19.4473H62.1702C63.1496 19.4473 63.7945 19.2436 64.1048 18.8364C64.2405 18.6521 64.512 17.9248 64.9193 16.6545C64.9484 16.5673 64.9775 16.4848 65.0066 16.4073C65.0357 16.3006 65.0745 16.1939 65.123 16.0873C65.2199 15.8158 65.3314 15.5539 65.4575 15.3018C65.7872 14.5939 66.1751 13.9685 66.6211 13.4255C67.9108 11.8448 69.5496 11.0545 71.5375 11.0545ZM118.446 24.2182C116.167 24.2182 114.252 23.617 112.7 22.4145C112.274 22.0752 111.886 21.7261 111.537 21.3673C110.936 22.1527 110.15 22.7976 109.18 23.3018C107.997 23.9224 106.717 24.2327 105.34 24.2327H100.09C97.0447 24.2327 95.1392 24.1648 94.3732 24.0291C92.8798 23.777 91.7405 23.0545 90.955 21.8618C90.4605 21.1152 90.1502 20.2618 90.0241 19.3018C89.9853 18.9527 89.9659 18.5891 89.9659 18.2109C89.9659 17.7939 89.9902 17.3624 90.0386 16.9164C90.1065 16.3152 90.2859 15.457 90.5768 14.3418C90.6641 13.983 90.7611 13.6194 90.8677 13.2509C90.9065 13.1248 90.9405 13.0085 90.9695 12.9018C90.9889 12.8145 91.0035 12.7612 91.0132 12.7418L95.595 14.0364C95.1005 15.8012 94.7708 17.2461 94.6059 18.3709C94.5962 18.4485 94.5914 18.5261 94.5914 18.6036C94.5914 18.7879 94.6253 18.9479 94.6932 19.0836C94.8095 19.3358 95.018 19.4618 95.3186 19.4618H105.34C105.883 19.4618 106.402 19.3455 106.897 19.1127C107.391 18.88 107.721 18.5988 107.886 18.2691C107.963 18.1042 108.002 17.9248 108.002 17.7309C108.002 17.2267 107.75 16.6061 107.246 15.8691L106.766 15.2145C106.107 14.4 105.258 13.3333 104.22 12.0145C103.833 11.5297 103.488 11.0982 103.188 10.72C102.916 10.3709 102.776 10.1915 102.766 10.1818L103.61 6.56L116.22 0.48L118.286 4.77091L108.351 9.55636C108.836 10.1673 110.334 12.1164 112.846 15.4036C114.107 17.12 115.028 18.2012 115.61 18.6473C116.308 19.1806 117.253 19.4473 118.446 19.4473H118.664V24.2182H118.446ZM128.174 19.4473C128.669 19.4473 129.037 19.3455 129.28 19.1418C129.609 18.8703 129.774 18.3903 129.774 17.7018V14.1673H134.545V17.7018C134.545 18.3321 134.632 18.7588 134.807 18.9818C135.03 19.2921 135.486 19.4473 136.174 19.4473C136.669 19.4473 137.037 19.3455 137.28 19.1418C137.6 18.8703 137.76 18.3903 137.76 17.7018V14.1673H142.531V17.7018C142.531 18.303 142.642 18.7297 142.865 18.9818C143.127 19.2921 143.607 19.4473 144.305 19.4473H146.167V24.2182H144.305C142.308 24.2182 140.916 23.777 140.131 22.8945C138.977 23.777 137.658 24.2182 136.174 24.2182C134.274 24.2182 132.931 23.777 132.145 22.8945C130.991 23.777 129.692 24.2182 128.247 24.2182C126.715 24.2182 125.372 23.777 124.218 22.8945C123.433 23.777 122.041 24.2182 120.043 24.2182H117.949V19.4473H120.043C120.742 19.4473 121.222 19.2921 121.483 18.9818C121.706 18.7297 121.818 18.303 121.818 17.7018V14.1673H126.589V17.7018C126.589 18.3903 126.754 18.8703 127.083 19.1418C127.316 19.3455 127.68 19.4473 128.174 19.4473ZM158.074 16.8291C158.152 17.2945 158.191 17.7406 158.191 18.1673C158.191 19.4861 157.812 20.6691 157.056 21.7164C155.844 23.3842 153.871 24.2182 151.136 24.2182H145.449V19.4473H151.034C151.907 19.4473 152.523 19.3309 152.882 19.0982C153.25 18.8752 153.434 18.5212 153.434 18.0364C153.434 17.8909 153.415 17.7309 153.376 17.5564C153.279 17.0618 153.182 16.5576 153.085 16.0436C153.046 15.8497 153.008 15.6412 152.969 15.4182L152.911 15.1418L152.867 14.8655C152.722 14.0703 152.61 13.503 152.533 13.1636L157.085 11.7818C157.376 13.1491 157.706 14.8315 158.074 16.8291ZM155.078 9.57091L152.227 6.69091L155.049 3.78182L157.958 6.69091L155.078 9.57091ZM148.983 9.58545L146.132 6.70545L148.94 3.79636L151.849 6.70545L148.983 9.58545ZM175.632 24.2182H170.861V3.24364H175.632V24.2182ZM186.515 14.1527V18.1236C186.515 18.5406 186.728 18.8752 187.155 19.1273C187.494 19.3406 187.838 19.4473 188.187 19.4473H188.856V24.2182H188.187C187.625 24.2182 187.029 24.1261 186.398 23.9418C186.117 26.0848 185.395 27.8109 184.231 29.12C182.534 31.0497 180.052 32.0145 176.784 32.0145H175.344V27.2436H176.784C178.568 27.2436 179.838 26.8412 180.595 26.0364C181.361 25.2315 181.744 23.8836 181.744 21.9927V14.1527H186.515ZM200.762 16.8291C200.839 17.2945 200.878 17.7406 200.878 18.1673C200.878 19.4861 200.5 20.6691 199.744 21.7164C198.532 23.3842 196.558 24.2182 193.824 24.2182H188.136V19.4473H193.722C194.595 19.4473 195.21 19.3309 195.569 19.0982C195.938 18.8752 196.122 18.5212 196.122 18.0364C196.122 17.8909 196.102 17.7309 196.064 17.5564C195.967 17.0618 195.87 16.5576 195.773 16.0436C195.734 15.8497 195.695 15.6412 195.656 15.4182L195.598 15.1418L195.555 14.8655C195.409 14.0703 195.298 13.503 195.22 13.1636L199.773 11.7818C200.064 13.1491 200.393 14.8315 200.762 16.8291ZM190.129 11.7673V9.6L191.933 9.01818C191.642 8.71758 191.399 8.37818 191.205 8C191.021 7.62182 190.929 7.21939 190.929 6.79273C190.929 6.46303 190.987 6.13818 191.104 5.81818C191.22 5.49818 191.38 5.20242 191.584 4.93091C191.787 4.65939 192.025 4.42182 192.296 4.21818C192.578 4.01455 192.873 3.86909 193.184 3.78182C193.348 3.73333 193.513 3.69939 193.678 3.68C193.853 3.65091 194.022 3.63636 194.187 3.63636C194.536 3.63636 194.842 3.68 195.104 3.76727C195.375 3.84485 195.627 3.92727 195.86 4.01455L196.107 4.13091L195.671 5.93455C195.535 5.90545 195.385 5.86667 195.22 5.81818C195.055 5.7697 194.89 5.73091 194.725 5.70182C194.561 5.67273 194.396 5.65818 194.231 5.65818C194.076 5.64849 193.935 5.66303 193.809 5.70182C193.673 5.7503 193.538 5.81818 193.402 5.90545C193.276 5.99273 193.169 6.09455 193.082 6.21091C192.995 6.31758 192.936 6.44364 192.907 6.58909C192.888 6.64727 192.878 6.70545 192.878 6.76364C192.878 6.86061 192.898 6.95757 192.936 7.05454C193.014 7.30667 193.193 7.52 193.475 7.69455C193.765 7.86909 194.168 7.95636 194.682 7.95636C194.779 7.95636 194.881 7.95152 194.987 7.94182C195.104 7.93212 195.254 7.90788 195.438 7.86909C195.622 7.82061 195.855 7.75758 196.136 7.68C196.427 7.59273 196.796 7.47636 197.242 7.33091L197.358 9.38182L190.129 11.7673ZM211.831 19.4618V17.9636C211.831 17.0715 211.641 16.3636 211.263 15.84C210.885 15.3261 210.371 15.0691 209.721 15.0691C209.062 15.0691 208.538 15.3261 208.151 15.84C207.792 16.3152 207.612 16.9309 207.612 17.6873C207.612 17.7745 207.617 17.8667 207.627 17.9636C207.656 18.4776 207.889 18.8655 208.325 19.1273C208.694 19.3503 209.159 19.4618 209.721 19.4618H211.831ZM209.721 10.2982C211.865 10.2982 213.571 11.0788 214.841 12.64C216.015 14.0655 216.601 15.84 216.601 17.9636V19.4618H218.041V24.2182H216.558C216.315 27.2339 214.841 29.3915 212.136 30.6909C211.079 31.1952 209.843 31.5588 208.427 31.7818C207.312 31.9661 206.105 32.0582 204.805 32.0582V27.2873C207.229 27.2873 209.052 26.9479 210.274 26.2691C211.263 25.7261 211.758 25.0424 211.758 24.2182H209.721C207.995 24.2182 206.526 23.7527 205.314 22.8218C203.86 21.697 203.132 20.0776 203.132 17.9636C203.132 15.9564 203.617 14.2545 204.587 12.8582C205.76 11.1515 207.472 10.2982 209.721 10.2982ZM234.997 4.90182L225.469 9.23636C226.303 10.0606 227.472 11.2679 228.975 12.8582C230.264 14.2448 231.171 15.5345 231.695 16.7273C232.054 17.5612 232.233 18.3612 232.233 19.1273V19.2436C232.223 19.8642 232.102 20.4412 231.869 20.9745C231.656 21.4788 231.351 21.9345 230.953 22.3418C230.439 22.8655 229.789 23.2824 229.004 23.5927C227.918 24.0097 226.594 24.2182 225.033 24.2182H217.324V19.4473H225.033C226.536 19.4473 227.433 19.3648 227.724 19.2C227.704 19.1127 227.656 18.9867 227.578 18.8218C227.481 18.6376 227.351 18.4242 227.186 18.1818C226.769 17.5515 226.206 16.863 225.498 16.1164C223.811 14.3224 222.347 12.8242 221.106 11.6218C220.892 11.4182 220.689 11.2291 220.495 11.0545C220.349 10.9091 220.209 10.7782 220.073 10.6618C220.024 10.6133 219.976 10.5697 219.928 10.5309L219.826 10.4291L219.782 10.4L219.767 10.3709L219.738 10.3564L220.291 6.37091L233.018 0.552727L234.997 4.90182Z" fill="url(#paint0_linear_2_1005)"/>
<defs>
<linearGradient id="paint0_linear_2_1005" x1="0" y1="13.5" x2="282" y2="13.5" gradientUnits="userSpaceOnUse">
<stop stop-color="#118C80"/>
<stop offset="1" stop-color="#4AB7D8"/>
</linearGradient>
</defs>
</svg>
