<svg width="11" height="11" viewBox="0 0 11 11" fill="none" xmlns="http://www.w3.org/2000/svg">
<g id="Group">
<g id="Group_2">
<path id="Path" d="M5.11742 3.10103C5.0526 3.10103 5.00014 3.15348 5.00099 3.21831C5.00099 3.28313 5.05345 3.33559 5.11828 3.33559C5.1831 3.33559 5.23556 3.28313 5.23556 3.21831C5.23471 3.15348 5.18268 3.10103 5.11742 3.10103" stroke="#BDBDBD" stroke-width="0.639729" stroke-linecap="round" stroke-linejoin="round"/>
<path id="Path_2" d="M2.95299 5.49957C2.95299 5.43474 2.90054 5.38228 2.83614 5.38313C2.77131 5.38313 2.71885 5.43559 2.71885 5.50042C2.71885 5.56524 2.77131 5.6177 2.83614 5.6177C2.90096 5.6177 2.95299 5.56482 2.95299 5.49957" stroke="#BDBDBD" stroke-width="0.639729" stroke-linecap="round" stroke-linejoin="round"/>
<path id="Path_3" d="M6.81395 3.80342C6.76832 3.75779 6.69411 3.75779 6.6489 3.80385C6.60327 3.84948 6.60327 3.92369 6.6489 3.96932C6.69454 4.01496 6.76875 4.01496 6.81438 3.96932C6.86001 3.92326 6.86001 3.84948 6.81395 3.80342" stroke="#BDBDBD" stroke-width="0.639729" stroke-linecap="round" stroke-linejoin="round"/>
<path id="Path_4" d="M3.58672 7.03066C3.54108 6.98502 3.46688 6.98502 3.42167 7.03108C3.37603 7.07672 3.37603 7.15092 3.42167 7.19656C3.4673 7.24219 3.54151 7.24219 3.58715 7.19656C3.63278 7.15092 3.63278 7.07672 3.58672 7.03066" stroke="#BDBDBD" stroke-width="0.639729" stroke-linecap="round" stroke-linejoin="round"/>
<path id="Path_5" d="M3.58718 3.96886C3.63281 3.92323 3.63281 3.84902 3.58675 3.80381C3.54112 3.75818 3.46691 3.75818 3.42127 3.80381C3.37564 3.84944 3.37564 3.92365 3.42127 3.96929C3.46691 4.01492 3.54112 4.01492 3.58718 3.96886" stroke="#BDBDBD" stroke-width="0.639729" stroke-linecap="round" stroke-linejoin="round"/>
<path id="Path_6" fill-rule="evenodd" clip-rule="evenodd" d="M5.11784 9.33836C2.96196 9.33836 1.22104 7.56076 1.28118 5.39123C1.33662 3.38845 3.00631 1.71876 5.00909 1.66332C7.17862 1.60318 8.95622 3.3441 8.95622 5.49998V5.92647C8.95622 6.39774 8.57451 6.77944 8.10324 6.77944H7.2234C6.6566 6.77944 6.2476 7.32193 6.40327 7.86655L6.51288 8.25082C6.66897 8.79587 6.25954 9.33836 5.69317 9.33836H5.11784Z" stroke="#BDBDBD" stroke-width="0.639729" stroke-linecap="round" stroke-linejoin="round"/>
</g>
</g>
</svg>
