<svg width="22" height="22" viewBox="0 0 22 22" fill="none" xmlns="http://www.w3.org/2000/svg">
<g id="Group">
<path id="Path" d="M16.4189 11C16.4189 11.2302 16.2323 11.4168 16.0021 11.4168C15.7719 11.4168 15.5852 11.2302 15.5852 11C15.5852 10.7698 15.7719 10.5832 16.0021 10.5832C16.2323 10.5832 16.4189 10.7698 16.4189 11" stroke="#BDBDBD" stroke-width="1.25" stroke-linecap="round" stroke-linejoin="round"/>
<path id="Path_2" d="M11.4168 11C11.4168 11.2302 11.2302 11.4168 11 11.4168C10.7698 11.4168 10.5832 11.2302 10.5832 11C10.5832 10.7698 10.7698 10.5832 11 10.5832C11.2302 10.5832 11.4168 10.7698 11.4168 11" stroke="#BDBDBD" stroke-width="1.25" stroke-linecap="round" stroke-linejoin="round"/>
<path id="Path_3" d="M6.41475 11C6.41475 11.2302 6.22812 11.4168 5.99791 11.4168C5.7677 11.4168 5.58107 11.2302 5.58107 11C5.58107 10.7698 5.7677 10.5832 5.99791 10.5832C6.22812 10.5832 6.41475 10.7698 6.41475 11" stroke="#BDBDBD" stroke-width="1.25" stroke-linecap="round" stroke-linejoin="round"/>
</g>
</svg>
