<svg width="11" height="11" viewBox="0 0 11 11" fill="none" xmlns="http://www.w3.org/2000/svg">
<g id="Group">
<g id="Group_2">
<path id="Path" d="M8.99807 5.08746V8.38763C8.99807 8.84347 8.62887 9.21267 8.17303 9.21267H2.39774C1.9419 9.21267 1.57269 8.84347 1.57269 8.38763V2.61233C1.57269 2.1565 1.9419 1.78729 2.39774 1.78729H5.28538" stroke="#BDBDBD" stroke-width="0.618782" stroke-linecap="round" stroke-linejoin="round"/>
<path id="Path_2" fill-rule="evenodd" clip-rule="evenodd" d="M4.04785 6.73757L5.34729 6.5771C5.43846 6.56596 5.52344 6.52429 5.58862 6.45953L8.73657 3.31158C9.08515 2.963 9.08515 2.39784 8.73657 2.04885V2.04885C8.38799 1.70027 7.82283 1.70027 7.47384 2.04885L4.35518 5.16751C4.29206 5.23063 4.25122 5.31231 4.23844 5.401L4.04785 6.73757Z" stroke="#BDBDBD" stroke-width="0.618782" stroke-linecap="round" stroke-linejoin="round"/>
</g>
</g>
</svg>
