<svg width="26" height="26" viewBox="0 0 26 26" fill="none" xmlns="http://www.w3.org/2000/svg">
<g id="Group">
<path id="Path" d="M10.9992 14.0004L11.9526 14.9538C12.703 15.7043 13.7209 16.1259 14.7822 16.1259C15.8436 16.1259 16.8615 15.7043 17.6119 14.9538L20.6442 11.9215C22.4571 10.1084 22.4571 7.16895 20.6442 5.35581V5.35581C18.831 3.54288 15.8916 3.54288 14.0784 5.35581L13.1911 6.24418" stroke="#208D8E" stroke-width="1.5" stroke-linecap="round" stroke-linejoin="round"/>
<path id="Path_2" d="M15.0008 10.9992L14.0474 10.0458C13.297 9.29527 12.2791 8.87363 11.2178 8.87363C10.1564 8.87363 9.13854 9.29527 8.38807 10.0458L5.35581 13.078C3.54288 14.8912 3.54288 17.8306 5.35581 19.6438V19.6438C7.16895 21.4567 10.1084 21.4567 11.9215 19.6438L12.8089 18.7554" stroke="#208D8E" stroke-width="1.5" stroke-linecap="round" stroke-linejoin="round"/>
</g>
</svg>
