<svg width="32" height="33" viewBox="0 0 32 33" fill="none" xmlns="http://www.w3.org/2000/svg">
<g id="Interface, Essential/Calendar,Schedule">
<g id="Group">
<g id="Group_2">
<path id="Path" d="M21.3307 3.16699V8.50032" stroke="#BDBDBD" stroke-width="2" stroke-linecap="round" stroke-linejoin="round"/>
<path id="Path_2" d="M10.6653 3.16699V8.50032" stroke="#BDBDBD" stroke-width="2" stroke-linecap="round" stroke-linejoin="round"/>
<path id="Path_3" d="M3.99884 12.5007H27.9988" stroke="#BDBDBD" stroke-width="2" stroke-linecap="round" stroke-linejoin="round"/>
<path id="Path_4" fill-rule="evenodd" clip-rule="evenodd" d="M25.3322 5.83398H6.66551C5.19217 5.83398 3.99884 7.02732 3.99884 8.50065V25.834C3.99884 27.3073 5.19217 28.5007 6.66551 28.5007H25.3322C26.8055 28.5007 27.9988 27.3073 27.9988 25.834V8.50065C27.9988 7.02732 26.8055 5.83398 25.3322 5.83398Z" stroke="#BDBDBD" stroke-width="2" stroke-linecap="round" stroke-linejoin="round"/>
<path id="Path_5" d="M8.66515 23.3333C8.48115 23.3333 8.33182 23.4827 8.33315 23.6667C8.33315 23.8507 8.48249 24 8.66649 24C8.85049 24 8.99982 23.8507 8.99982 23.6667C8.99982 23.4827 8.85049 23.3333 8.66515 23.3333" stroke="#BDBDBD" stroke-width="2" stroke-linecap="round" stroke-linejoin="round"/>
</g>
</g>
</g>
</svg>
