<svg width="30" height="30" viewBox="0 0 30 30" fill="none" xmlns="http://www.w3.org/2000/svg">
<g id="Group">
<g id="Group_2">
<path id="Path" d="M11.5251 12.7273C11.7008 12.903 11.7008 13.1877 11.5251 13.3634C11.3495 13.539 11.0647 13.539 10.8891 13.3634C10.7134 13.1877 10.7134 12.903 10.8891 12.7273C11.0647 12.5517 11.3495 12.5517 11.5251 12.7273" stroke="#C1C1C1" stroke-width="1.83824" stroke-linecap="round" stroke-linejoin="round"/>
<path id="Path_2" fill-rule="evenodd" clip-rule="evenodd" d="M14.6446 8.00245L23.4804 16.8382C24.4265 17.7843 24.4265 19.3186 23.4804 20.2647L18.4265 25.3186C17.4804 26.2647 15.9461 26.2647 15 25.3186L6.16421 16.4828C5.9375 16.2561 5.80882 15.9473 5.80882 15.6262V8.85907C5.80882 8.18995 6.35171 7.64706 7.02083 7.64706H13.7892C14.1103 7.64706 14.4179 7.77451 14.6446 8.00245V8.00245Z" stroke="#C1C1C1" stroke-width="1.83824" stroke-linecap="round" stroke-linejoin="round"/>
<path id="Path_3" d="M24.1912 12.549L16.2181 4.6777C15.7586 4.22427 15.1409 3.97059 14.4963 3.97059H9.48529" stroke="#C1C1C1" stroke-width="1.83824" stroke-linecap="round" stroke-linejoin="round"/>
</g>
</g>
</svg>
