<svg width="20" height="20" viewBox="0 0 20 20" fill="none" xmlns="http://www.w3.org/2000/svg">
<path d="M10.3273 9.19355V3.00171" stroke="#323232" stroke-width="1.20907" stroke-linecap="round" stroke-linejoin="round"/>
<path fill-rule="evenodd" clip-rule="evenodd" d="M10.3274 9.19356L12.7465 6.77441L10.3274 9.19356Z" stroke="#323232" stroke-width="1.20907" stroke-linecap="round" stroke-linejoin="round"/>
<path d="M3.06982 12.4191H6.60339C6.90856 12.4191 7.18758 12.5914 7.3243 12.8642L7.68475 13.5859C7.82137 13.8593 8.10083 14.032 8.40647 14.0318H12.2473C12.5529 14.032 12.8324 13.8593 12.969 13.5859L13.3294 12.865C13.4661 12.5916 13.7455 12.4189 14.0511 12.4191H17.5847" stroke="#323232" stroke-width="1.20907" stroke-linecap="round" stroke-linejoin="round"/>
<path d="M12.7464 2.74243H15.1656C16.5016 2.74243 17.5847 3.82552 17.5847 5.16158V14.8382C17.5847 16.1742 16.5016 17.2573 15.1656 17.2573H5.48897C4.15291 17.2573 3.06982 16.1742 3.06982 14.8382V5.16158C3.06982 3.82552 4.15291 2.74243 5.48897 2.74243H7.90812" stroke="#323232" stroke-width="1.20907" stroke-linecap="round" stroke-linejoin="round"/>
<path fill-rule="evenodd" clip-rule="evenodd" d="M7.9082 6.77441L10.3274 9.19356L7.9082 6.77441Z" stroke="#323232" stroke-width="1.20907" stroke-linecap="round" stroke-linejoin="round"/>
</svg>
