<svg width="24" height="24" viewBox="0 0 24 24" fill="none" xmlns="http://www.w3.org/2000/svg">
<g id="Group">
<path id="Path" fill-rule="evenodd" clip-rule="evenodd" d="M12 3.99683C7.02793 3.99683 2.99625 7.35691 2.99625 11.497C3.0714 13.9954 4.44925 16.2719 6.62776 17.4972C6.41136 18.0853 6.11046 18.6387 5.73453 19.14C5.52703 19.4429 5.53217 19.8436 5.74735 20.1411C5.96254 20.4386 6.3414 20.569 6.69409 20.4668C7.89692 20.1166 9.02907 19.5583 10.0392 18.8173C10.6857 18.9385 11.3422 18.9987 12 18.9973C16.9721 18.9973 21.0037 15.6372 21.0037 11.497C21.0037 7.35692 16.9721 3.99683 12 3.99683Z" stroke="#AEAEAE" stroke-width="1.5" stroke-linecap="round" stroke-linejoin="round"/>
<path id="Path_2" d="M8.99875 9.99923H15.0012" stroke="#AEAEAE" stroke-width="1.5" stroke-linecap="round" stroke-linejoin="round"/>
<path id="Path_3" d="M8.99875 13.0005H12" stroke="#AEAEAE" stroke-width="1.5" stroke-linecap="round" stroke-linejoin="round"/>
</g>
</svg>
