<svg width="20" height="20" viewBox="0 0 20 20" fill="none" xmlns="http://www.w3.org/2000/svg">
<path d="M17.5817 9.19386V15.6422C17.5817 16.5329 16.8603 17.2543 15.9696 17.2543H4.68497C3.79429 17.2543 3.07288 16.5329 3.07288 15.6422V4.35758C3.07288 3.4669 3.79429 2.74548 4.68497 2.74548H10.3273" stroke="#323232" stroke-width="1.20907" stroke-linecap="round" stroke-linejoin="round"/>
<path fill-rule="evenodd" clip-rule="evenodd" d="M7.90918 12.4181L10.4482 12.1045C10.6264 12.0828 10.7924 12.0014 10.9198 11.8748L17.0707 5.72387C17.7518 5.04276 17.7518 3.93848 17.0707 3.25656V3.25656C16.3896 2.57545 15.2853 2.57545 14.6034 3.25656L8.50968 9.35027C8.38636 9.4736 8.30656 9.6332 8.28157 9.8065L7.90918 12.4181Z" stroke="#323232" stroke-width="1.20907" stroke-linecap="round" stroke-linejoin="round"/>
</svg>
