<svg width="24" height="25" viewBox="0 0 24 25" fill="none" xmlns="http://www.w3.org/2000/svg">
<path d="M8.12132 5.37868C9.29289 6.55025 9.29289 8.44975 8.12132 9.62132C6.94975 10.7929 5.05025 10.7929 3.87868 9.62132C2.70711 8.44975 2.70711 6.55025 3.87868 5.37868C5.05025 4.20711 6.94975 4.20711 8.12132 5.37868" stroke="#323232" stroke-width="1.5" stroke-linecap="round" stroke-linejoin="round"/>
<path d="M20 7.5H9" stroke="#323232" stroke-width="1.5" stroke-linecap="round" stroke-linejoin="round"/>
<path d="M20.1213 15.3787C21.2929 16.5502 21.2929 18.4497 20.1213 19.6213C18.9497 20.7929 17.0502 20.7929 15.8787 19.6213C14.7071 18.4497 14.7071 16.5502 15.8787 15.3787C17.0502 14.2071 18.9497 14.2071 20.1213 15.3787" stroke="#323232" stroke-width="1.5" stroke-linecap="round" stroke-linejoin="round"/>
<path d="M4 17.5H15" stroke="#323232" stroke-width="1.5" stroke-linecap="round" stroke-linejoin="round"/>
</svg>
