<svg width="16" height="15" viewBox="0 0 16 15" fill="none" xmlns="http://www.w3.org/2000/svg">
<path d="M7.02449 8.41626C6.76446 8.18925 6.36964 8.21601 6.14263 8.47603C5.91561 8.73606 5.94238 9.13088 6.2024 9.35789L7.02449 8.41626ZM12.1627 8.88708L12.5737 9.35789C12.5844 9.34862 12.5947 9.33899 12.6046 9.32902L12.1627 8.88708ZM13.1027 7.06319C12.8613 7.30984 12.8655 7.70555 13.1121 7.94703C13.3588 8.18851 13.7545 8.18432 13.9959 7.93767L13.1027 7.06319ZM7.56285 1.50458C7.3162 1.74606 7.31201 2.14177 7.55349 2.38842C7.79497 2.63507 8.19068 2.63926 8.43733 2.39778L7.56285 1.50458ZM8.97603 6.58417C9.23606 6.81119 9.63088 6.78442 9.85789 6.5244C10.0849 6.26437 10.0581 5.86955 9.79812 5.64254L8.97603 6.58417ZM3.83782 6.11336L3.42678 5.64254C3.41616 5.65181 3.40585 5.66145 3.39587 5.67142L3.83782 6.11336ZM2.89778 7.93728C3.13926 7.69063 3.13507 7.29492 2.88842 7.05344C2.64177 6.81197 2.24606 6.81616 2.00458 7.0628L2.89778 7.93728ZM2.45118 7.50004L2.00921 7.05808L2.00458 7.0628L2.45118 7.50004ZM8.43767 13.4959C8.68432 13.2544 8.68851 12.8587 8.44703 12.6121C8.20555 12.3654 7.80984 12.3612 7.56319 12.6027L8.43767 13.4959ZM6.2024 9.35789C8.02736 10.9512 10.7488 10.9512 12.5737 9.35789L11.7517 8.41626C10.3976 9.59837 8.3785 9.59837 7.02449 8.41626L6.2024 9.35789ZM12.6046 9.32902L13.9913 7.94237L13.1074 7.05849L11.7208 8.44513L12.6046 9.32902ZM13.9959 7.93767C15.7404 6.15584 15.7253 3.30172 13.9621 1.53847L13.0782 2.42235C14.3569 3.7011 14.3679 5.77097 13.1027 7.06319L13.9959 7.93767ZM13.9621 1.53847C12.1988 -0.224794 9.34468 -0.239906 7.56285 1.50458L8.43733 2.39778C9.72955 1.13263 11.7994 1.14359 13.0782 2.42235L13.9621 1.53847ZM9.79812 5.64254C7.97316 4.04928 5.25174 4.04928 3.42678 5.64254L4.24887 6.58417C5.60288 5.40206 7.62202 5.40206 8.97603 6.58417L9.79812 5.64254ZM3.39587 5.67142L2.00923 7.05811L2.89313 7.94198L4.27977 6.55529L3.39587 5.67142ZM2.00458 7.0628C0.260094 8.84464 0.275206 11.6987 2.03847 13.462L2.92235 12.5781C1.64359 11.2994 1.63263 9.2295 2.89778 7.93728L2.00458 7.0628ZM2.03847 13.462C3.80172 15.2253 6.65584 15.2404 8.43767 13.4959L7.56319 12.6027C6.27097 13.8678 4.2011 13.8569 2.92235 12.5781L2.03847 13.462Z" fill="#323232"/>
</svg>
