<svg width="20" height="20" viewBox="0 0 20 20" fill="none" xmlns="http://www.w3.org/2000/svg">
<path d="M15.4191 9.99997C15.4191 10.2302 15.2325 10.4168 15.0023 10.4168C14.7721 10.4168 14.5854 10.2302 14.5854 9.99997C14.5854 9.76976 14.7721 9.58313 15.0023 9.58313C15.2325 9.58313 15.4191 9.76976 15.4191 9.99997" stroke="#323232" stroke-width="1.25" stroke-linecap="round" stroke-linejoin="round"/>
<path d="M10.4172 9.99997C10.4172 10.2302 10.2306 10.4168 10.0003 10.4168C9.77012 10.4168 9.5835 10.2302 9.5835 9.99997C9.5835 9.76976 9.77012 9.58313 10.0003 9.58313C10.2306 9.58313 10.4172 9.76976 10.4172 9.99997" stroke="#323232" stroke-width="1.25" stroke-linecap="round" stroke-linejoin="round"/>
<path d="M5.41474 9.99997C5.41474 10.2302 5.22811 10.4168 4.99789 10.4168C4.76768 10.4168 4.58105 10.2302 4.58105 9.99997C4.58105 9.76976 4.76768 9.58313 4.99789 9.58313C5.22811 9.58313 5.41474 9.76976 5.41474 9.99997" stroke="#323232" stroke-width="1.25" stroke-linecap="round" stroke-linejoin="round"/>
</svg>
