<svg width="24" height="24" viewBox="0 0 24 24" fill="none" xmlns="http://www.w3.org/2000/svg">
<path d="M13.53 7.52002L9.46997 10.56" stroke="#323232" stroke-width="1.5" stroke-linecap="round" stroke-linejoin="round"/>
<path d="M16.4049 4.64228C17.1984 5.43582 17.1984 6.72242 16.4049 7.51596C15.6113 8.3095 14.3247 8.3095 13.5312 7.51596C12.7376 6.72241 12.7376 5.43582 13.5312 4.64228C14.3247 3.84873 15.6113 3.84873 16.4049 4.64228" stroke="#323232" stroke-width="1.5" stroke-linecap="round" stroke-linejoin="round"/>
<path d="M13.53 16.4802L9.46997 13.4402" stroke="#323232" stroke-width="1.5" stroke-linecap="round" stroke-linejoin="round"/>
<path d="M16.4049 16.4843C17.1984 17.2779 17.1984 18.5645 16.4049 19.358C15.6113 20.1515 14.3247 20.1515 13.5312 19.358C12.7376 18.5645 12.7376 17.2779 13.5312 16.4843C14.3247 15.6908 15.6113 15.6908 16.4049 16.4843" stroke="#323232" stroke-width="1.5" stroke-linecap="round" stroke-linejoin="round"/>
<path d="M9.46542 10.5648C10.2582 11.3576 10.2582 12.6429 9.46542 13.4356C8.67266 14.2284 7.38733 14.2284 6.59457 13.4356C5.80181 12.6429 5.80181 11.3575 6.59457 10.5648C7.38734 9.77202 8.67266 9.77202 9.46542 10.5648" stroke="#323232" stroke-width="1.5" stroke-linecap="round" stroke-linejoin="round"/>
</svg>
