<svg width="13" height="18" viewBox="0 0 13 18" fill="none" xmlns="http://www.w3.org/2000/svg">
<path d="M8.52973 4.51953L4.46973 7.55953" stroke="white" stroke-width="1.5" stroke-linecap="round" stroke-linejoin="round"/>
<path d="M11.4044 1.64203C12.1979 2.43558 12.1979 3.72217 11.4044 4.51571C10.6108 5.30926 9.32425 5.30926 8.53071 4.51571C7.73716 3.72217 7.73716 2.43557 8.53071 1.64203C9.32425 0.848489 10.6108 0.848489 11.4044 1.64203" stroke="white" stroke-width="1.5" stroke-linecap="round" stroke-linejoin="round"/>
<path d="M8.52973 13.4795L4.46973 10.4395" stroke="white" stroke-width="1.5" stroke-linecap="round" stroke-linejoin="round"/>
<path d="M11.4044 13.4838C12.1979 14.2774 12.1979 15.564 11.4044 16.3575C10.6108 17.1511 9.32425 17.1511 8.53071 16.3575C7.73716 15.564 7.73716 14.2774 8.53071 13.4838C9.32425 12.6903 10.6108 12.6903 11.4044 13.4838" stroke="white" stroke-width="1.5" stroke-linecap="round" stroke-linejoin="round"/>
<path d="M4.46542 7.5643C5.25819 8.35706 5.25819 9.64239 4.46542 10.4351C3.67266 11.2279 2.38733 11.2279 1.59457 10.4351C0.801809 9.64239 0.801809 8.35706 1.59457 7.5643C2.38734 6.77154 3.67266 6.77154 4.46542 7.5643" stroke="white" stroke-width="1.5" stroke-linecap="round" stroke-linejoin="round"/>
</svg>
